# xmcd
#
# Track frame offsets:
#	150
#	18845
#	35109
#	53524
#	70314
#	90509
#	122389
#	140664
#	160069
#	179903
#	199527
#	214426
#	236286
#	256636
#	273071
#
# Disc length: 3872 seconds
#
# Revision: 0
# Processed by: cddbd v1.5.1PL2 Copyright (c) Steve Scherf et al.
# Submitted via: audiograbber 1.83.01
#
DISCID=c90f1e0f
DTITLE=Various Artist - SF009
DYEAR=1900
DGENRE=
TTITLE0=Ace Of Base - Don't Turn Around
TTITLE1=Robin S - Show Me Love
TTITLE2=Wet Wet Wet - Love Is All Around
TTITLE3=John Travolta - Greased Lightning
TTITLE4=Meatloaf - Dead Ringer For Love
TTITLE5=Prince - Purple Rain
TTITLE6=Womack and Womack - Teardrops
TTITLE7=Commitments - Mustang Sally
TTITLE8=Lionel Richie - Say You Say Me
TTITLE9=Gun - Word Up
TTITLE10=Queen - We Are The Champions
TTITLE11=Corona - The Rhythm Of The Night
TTITLE12=Madonna - True Blue
TTITLE13=China Black - Searchin'
TTITLE14=Antonia - Fame
EXTD=
EXTT0=
EXTT1=
EXTT2=
EXTT3=
EXTT4=
EXTT5=
EXTT6=
EXTT7=
EXTT8=
EXTT9=
EXTT10=
EXTT11=
EXTT12=
EXTT13=
EXTT14=
PLAYORDER=
